<?xml version="1.0" encoding="utf-8"?>
<!-- Generator: Adobe Illustrator 25.0.0, SVG Export Plug-In . SVG Version: 6.00 Build 0)  -->
<svg version="1.1"
	 id="designs" xmlns:cc="http://creativecommons.org/ns#" xmlns:dc="http://purl.org/dc/elements/1.1/" xmlns:rdf="http://www.w3.org/1999/02/22-rdf-syntax-ns#"
	 xmlns="http://www.w3.org/2000/svg" xmlns:xlink="http://www.w3.org/1999/xlink" x="0px" y="0px" viewBox="0 0 32 32"
	 style="enable-background:new 0 0 32 32;" xml:space="preserve">
<style type="text/css">
	.st0{fill:#CC2954;}
	.st1{fill:#2B4099;}
</style>
<desc  property="dc:description">
	An icon for &quot;gamble&quot; from the Science and Fiction series on to [icon]. Downloaded from http://www.toicon.com/icons/science-and-fiction_gamble by 181.59.57.126 on 2018-02-07. Licensed CC-BY, see http://toicon.com/license/ for details.
	</desc>
<path class="st0" d="M10.5,17c0.3,0,0.5,0.2,0.5,0.5S10.8,18,10.5,18S10,17.8,10,17.5S10.2,17,10.5,17z M9,17.5
	c0,0.8,0.7,1.5,1.5,1.5s1.5-0.7,1.5-1.5S11.3,16,10.5,16S9,16.7,9,17.5L9,17.5z M3,28h15v-8.5h-1V27H4V14h9.5v-1H3V28z M6.5,23
	C6.8,23,7,23.2,7,23.5S6.8,24,6.5,24S6,23.8,6,23.5S6.2,23,6.5,23z M5,23.5C5,24.3,5.7,25,6.5,25S8,24.3,8,23.5S7.3,22,6.5,22
	S5,22.7,5,23.5L5,23.5z M10.5,23c0.3,0,0.5,0.2,0.5,0.5S10.8,24,10.5,24S10,23.8,10,23.5S10.2,23,10.5,23z M9,23.5
	c0,0.8,0.7,1.5,1.5,1.5s1.5-0.7,1.5-1.5S11.3,22,10.5,22S9,22.7,9,23.5L9,23.5z M14.5,23c0.3,0,0.5,0.2,0.5,0.5S14.8,24,14.5,24
	S14,23.8,14,23.5S14.2,23,14.5,23z M13,23.5c0,0.8,0.7,1.5,1.5,1.5c0.8,0,1.5-0.7,1.5-1.5S15.3,22,14.5,22S13,22.7,13,23.5L13,23.5z
	 M6.5,17C6.8,17,7,17.2,7,17.5S6.8,18,6.5,18S6,17.8,6,17.5S6.2,17,6.5,17z M5,17.5C5,18.3,5.7,19,6.5,19S8,18.3,8,17.5
	S7.3,16,6.5,16S5,16.7,5,17.5L5,17.5z"/>
<path class="st1" d="M14,6h13v13H14V6z M13,20h15V5H13V20L13,20z M23.5,9C23.8,9,24,9.2,24,9.5S23.8,10,23.5,10
	C23.2,10,23,9.8,23,9.5S23.2,9,23.5,9z M22,9.5c0,0.8,0.7,1.5,1.5,1.5c0.8,0,1.5-0.7,1.5-1.5S24.3,8,23.5,8C22.7,8,22,8.7,22,9.5
	L22,9.5z M23.5,15c0.3,0,0.5,0.2,0.5,0.5S23.8,16,23.5,16c-0.3,0-0.5-0.2-0.5-0.5S23.2,15,23.5,15z M22,15.5c0,0.8,0.7,1.5,1.5,1.5
	c0.8,0,1.5-0.7,1.5-1.5c0-0.8-0.7-1.5-1.5-1.5C22.7,14,22,14.7,22,15.5L22,15.5z M17.5,15c0.3,0,0.5,0.2,0.5,0.5S17.8,16,17.5,16
	c-0.3,0-0.5-0.2-0.5-0.5S17.2,15,17.5,15z M16,15.5c0,0.8,0.7,1.5,1.5,1.5c0.8,0,1.5-0.7,1.5-1.5c0-0.8-0.7-1.5-1.5-1.5
	C16.7,14,16,14.7,16,15.5L16,15.5z M20.5,12c0.3,0,0.5,0.2,0.5,0.5S20.8,13,20.5,13c-0.3,0-0.5-0.2-0.5-0.5S20.2,12,20.5,12z
	 M19,12.5c0,0.8,0.7,1.5,1.5,1.5c0.8,0,1.5-0.7,1.5-1.5S21.3,11,20.5,11C19.7,11,19,11.7,19,12.5L19,12.5z M17.5,9
	C17.8,9,18,9.2,18,9.5S17.8,10,17.5,10C17.2,10,17,9.8,17,9.5S17.2,9,17.5,9z M16,9.5c0,0.8,0.7,1.5,1.5,1.5c0.8,0,1.5-0.7,1.5-1.5
	S18.3,8,17.5,8C16.7,8,16,8.7,16,9.5L16,9.5z"/>
</svg>
