<?xml version="1.0" encoding="utf-8"?>
<!-- Generator: Adobe Illustrator 25.0.0, SVG Export Plug-In . SVG Version: 6.00 Build 0)  -->
<svg version="1.1"
	 id="designs" xmlns:cc="http://creativecommons.org/ns#" xmlns:dc="http://purl.org/dc/elements/1.1/" xmlns:rdf="http://www.w3.org/1999/02/22-rdf-syntax-ns#"
	 xmlns="http://www.w3.org/2000/svg" xmlns:xlink="http://www.w3.org/1999/xlink" x="0px" y="0px" viewBox="0 0 32 32"
	 style="enable-background:new 0 0 32 32;" xml:space="preserve">
<style type="text/css">
	.st0{fill:#CC2954;}
	.st1{fill:#2B4099;}
</style>
<desc  property="dc:description">
	An icon for &quot;gamble&quot; from the Science and Fiction series on to [icon]. Downloaded from http://www.toicon.com/icons/science-and-fiction_gamble by 181.59.57.126 on 2018-02-07. Licensed CC-BY, see http://toicon.com/license/ for details.
	</desc>
<path class="st0" d="M21,17.5c0,0.3-0.2,0.5-0.5,0.5S20,17.8,20,17.5s0.2-0.5,0.5-0.5S21,17.2,21,17.5z M22,17.5
	c0-0.8-0.7-1.5-1.5-1.5S19,16.7,19,17.5s0.7,1.5,1.5,1.5S22,18.3,22,17.5L22,17.5z M28,13H17.5v1H27v13H14v-7.5h-1V28h15V13z
	 M25,23.5c0,0.3-0.2,0.5-0.5,0.5S24,23.8,24,23.5s0.2-0.5,0.5-0.5S25,23.2,25,23.5z M26,23.5c0-0.8-0.7-1.5-1.5-1.5S23,22.7,23,23.5
	s0.7,1.5,1.5,1.5S26,24.3,26,23.5L26,23.5z M21,23.5c0,0.3-0.2,0.5-0.5,0.5S20,23.8,20,23.5s0.2-0.5,0.5-0.5S21,23.2,21,23.5z
	 M22,23.5c0-0.8-0.7-1.5-1.5-1.5S19,22.7,19,23.5s0.7,1.5,1.5,1.5S22,24.3,22,23.5L22,23.5z M17,23.5c0,0.3-0.2,0.5-0.5,0.5
	S16,23.8,16,23.5s0.2-0.5,0.5-0.5S17,23.2,17,23.5z M18,23.5c0-0.8-0.7-1.5-1.5-1.5S15,22.7,15,23.5s0.7,1.5,1.5,1.5
	C17.3,25,18,24.3,18,23.5L18,23.5z M25,17.5c0,0.3-0.2,0.5-0.5,0.5S24,17.8,24,17.5s0.2-0.5,0.5-0.5S25,17.2,25,17.5z M26,17.5
	c0-0.8-0.7-1.5-1.5-1.5S23,16.7,23,17.5s0.7,1.5,1.5,1.5S26,18.3,26,17.5L26,17.5z"/>
<path class="st1" d="M17,19H4V6h13V19z M18,20V5H3v15H18L18,20z M8,9.5C8,9.8,7.8,10,7.5,10S7,9.8,7,9.5S7.2,9,7.5,9S8,9.2,8,9.5z
	 M9,9.5C9,8.7,8.3,8,7.5,8S6,8.7,6,9.5S6.7,11,7.5,11S9,10.3,9,9.5L9,9.5z M8,15.5C8,15.8,7.8,16,7.5,16S7,15.8,7,15.5
	S7.2,15,7.5,15S8,15.2,8,15.5z M9,15.5C9,14.7,8.3,14,7.5,14S6,14.7,6,15.5C6,16.3,6.7,17,7.5,17S9,16.3,9,15.5L9,15.5z M14,15.5
	c0,0.3-0.2,0.5-0.5,0.5S13,15.8,13,15.5s0.2-0.5,0.5-0.5S14,15.2,14,15.5z M15,15.5c0-0.8-0.7-1.5-1.5-1.5S12,14.7,12,15.5
	c0,0.8,0.7,1.5,1.5,1.5S15,16.3,15,15.5L15,15.5z M11,12.5c0,0.3-0.2,0.5-0.5,0.5S10,12.8,10,12.5s0.2-0.5,0.5-0.5S11,12.2,11,12.5z
	 M12,12.5c0-0.8-0.7-1.5-1.5-1.5S9,11.7,9,12.5S9.7,14,10.5,14S12,13.3,12,12.5L12,12.5z M14,9.5c0,0.3-0.2,0.5-0.5,0.5
	S13,9.8,13,9.5S13.2,9,13.5,9S14,9.2,14,9.5z M15,9.5C15,8.7,14.3,8,13.5,8S12,8.7,12,9.5s0.7,1.5,1.5,1.5S15,10.3,15,9.5L15,9.5z"
	/>
</svg>
